<svg width="96" height="96" viewBox="0 0 96 96" fill="none" xmlns="http://www.w3.org/2000/svg">
  <defs>
    <linearGradient id="g" x1="14" y1="14" x2="82" y2="82" gradientUnits="userSpaceOnUse">
      <stop stop-color="#C9A14A"/>
      <stop offset="1" stop-color="#7A1E2B"/>
    </linearGradient>
  </defs>
  <circle cx="48" cy="48" r="40" stroke="url(#g)" stroke-width="2"/>
  <path d="M42 24h12" stroke="#7A1E2B" stroke-width="2" stroke-linecap="round"/>
  <path d="M43 28h10l-2 6v6c0 3 2 4 2 7l2 23c0 4-4 8-10 8s-10-4-10-8l2-23c0-3 2-4 2-7v-6l-2-6Z" stroke="#7A1E2B" stroke-width="2" stroke-linejoin="round"/>
  <path d="M48 52c4 4 6 7 6 10a6 6 0 0 1-12 0c0-3 2-6 6-10Z" stroke="#C9A14A" stroke-width="2"/>
</svg>
